<svg width="65" height="65" fill="none" xmlns="http://www.w3.org/2000/svg"><path d="M23.486 34.182a16.365 16.365 0 0 1 3.714 2.57 17.086 17.086 0 0 1 2.856 3.429 15.198 15.198 0 0 1 1.81 4.062c.401 1.439.613 2.941.634 4.507h-4.063c0-1.672-.317-3.248-.952-4.729a11.973 11.973 0 0 0-2.634-3.872 12.723 12.723 0 0 0-3.872-2.603c-1.46-.634-3.036-.962-4.729-.983-1.671 0-3.248.317-4.729.952a11.973 11.973 0 0 0-3.872 2.634 12.72 12.72 0 0 0-2.603 3.872c-.634 1.46-.962 3.036-.984 4.729H0c0-1.545.212-3.036.635-4.475a16.66 16.66 0 0 1 1.809-4.063 16.257 16.257 0 0 1 2.825-3.427 16.888 16.888 0 0 1 3.745-2.603 11.924 11.924 0 0 1-3.618-4.316 12.43 12.43 0 0 1-1.333-5.491c0-1.672.317-3.248.952-4.729a11.972 11.972 0 0 1 2.634-3.872 12.723 12.723 0 0 1 3.872-2.603c1.46-.634 3.036-.962 4.729-.983 1.672 0 3.248.317 4.729.952a11.973 11.973 0 0 1 3.872 2.634 12.723 12.723 0 0 1 2.603 3.872c.634 1.46.962 3.036.983 4.729 0 1.925-.433 3.756-1.3 5.49a11.802 11.802 0 0 1-3.65 4.317ZM8.125 24.375c0 1.121.212 2.169.635 3.142a8.257 8.257 0 0 0 4.316 4.317c.973.423 2.031.645 3.174.666 1.1 0 2.148-.212 3.142-.635a7.792 7.792 0 0 0 2.57-1.745 9.048 9.048 0 0 0 1.747-2.571c.444-.973.666-2.031.666-3.174 0-1.1-.212-2.148-.635-3.142a7.792 7.792 0 0 0-1.745-2.57 8.916 8.916 0 0 0-2.603-1.747 7.618 7.618 0 0 0-3.142-.666 7.794 7.794 0 0 0-3.142.635 8.256 8.256 0 0 0-2.57 1.745 8.157 8.157 0 0 0-1.747 2.603 8.36 8.36 0 0 0-.666 3.142ZM65 12.187v4.063H36.562v-4.063H65Zm-28.438 16.25H65V32.5H36.562v-4.063Zm0 16.25H65v4.063H36.562v-4.063Z" fill="#5E79EC"/></svg>