<svg width="65" height="65" fill="none" xmlns="http://www.w3.org/2000/svg"><path fill-rule="evenodd" clip-rule="evenodd" d="M24.375 32.5V4.062h4.063v24.85l7.08-4.253a2.032 2.032 0 0 1 2.089 0l7.08 4.254V4.063h4.063V32.5a2.03 2.03 0 0 1-3.075 1.743l-9.112-5.468-9.113 5.472a2.031 2.031 0 0 1-3.075-1.747Z" fill="#5E79EC"/><path d="M12.188 0h40.624a8.125 8.125 0 0 1 8.126 8.125v48.75A8.125 8.125 0 0 1 52.812 65H12.188a8.125 8.125 0 0 1-8.126-8.125v-4.063h4.063v4.063a4.062 4.062 0 0 0 4.063 4.063h40.624a4.062 4.062 0 0 0 4.063-4.063V8.125a4.062 4.062 0 0 0-4.063-4.063H12.188a4.062 4.062 0 0 0-4.063 4.063v4.063H4.062V8.125A8.125 8.125 0 0 1 12.188 0Z" fill="#5E79EC"/><path d="M4.063 20.313V18.28a2.031 2.031 0 0 1 4.062 0v2.032h2.031a2.032 2.032 0 1 1 0 4.062H2.031a2.031 2.031 0 0 1 0-4.063h2.031Zm0 12.187v-2.031a2.031 2.031 0 1 1 4.062 0V32.5h2.031a2.032 2.032 0 1 1 0 4.063H2.031a2.031 2.031 0 0 1 0-4.063h2.031Zm0 12.188v-2.032a2.031 2.031 0 0 1 4.062 0v2.032h2.031a2.032 2.032 0 1 1 0 4.062H2.031a2.031 2.031 0 0 1 0-4.063h2.031Z" fill="#5E79EC"/></svg>