<svg width="65" height="65" fill="none" xmlns="http://www.w3.org/2000/svg"><path d="M46.719 14.219h8.125v8.125h-8.125v-8.125Zm0 12.187h8.125v8.125h-8.125v-8.125ZM34.53 14.22h8.125v8.125h-8.125v-8.125Zm0 12.187h8.125v8.125h-8.125v-8.125ZM29.453 52.813a3.047 3.047 0 1 0 0-6.094 3.047 3.047 0 0 0 0 6.093Z" fill="#5E79EC"/><path d="M42.656 60.938H16.25a4.066 4.066 0 0 1-4.063-4.063V8.125a4.066 4.066 0 0 1 4.063-4.063h26.406v4.063H16.25v48.75h26.406v-16.25h4.063v16.25a4.067 4.067 0 0 1-4.063 4.063Z" fill="#5E79EC"/></svg>