<svg width="65" height="65" fill="none" xmlns="http://www.w3.org/2000/svg"><path d="M40.625 16.25h13.542V32.5H40.625V16.25ZM24.375 32.5V16.25h13.542V32.5H24.375Zm16.25 18.958v-16.25h13.542v16.25H40.625Zm-16.25 0v-16.25h13.542v16.25H24.375Zm-16.25 0v-16.25h13.542v16.25H8.125Zm0-18.958V16.25h13.542V32.5H8.125Zm2.708-13.542v10.834h8.125V18.958h-8.125Zm16.25 0v10.834h8.125V18.958h-8.125Zm16.25 0v10.834h8.125V18.958h-8.125Zm-32.5 18.959V48.75h8.125V37.917h-8.125Zm16.25 0V48.75h8.125V37.917h-8.125Zm16.25 0V48.75h8.125V37.917h-8.125Z" fill="#5E79EC"/></svg>