<svg width="25" height="26" fill="none" xmlns="http://www.w3.org/2000/svg"><path d="M8.195 13.313V11.5a.68.68 0 1 1 1.36 0v1.813a.68.68 0 1 1-1.36 0Zm4.305.68a.68.68 0 0 0 .68-.68v-2.72a.68.68 0 1 0-1.36 0v2.72a.68.68 0 0 0 .68.68Zm3.625 0a.68.68 0 0 0 .68-.68V9.687a.68.68 0 1 0-1.36 0v3.626a.68.68 0 0 0 .68.68Zm6.117-8.157v11.328h1.133a.68.68 0 0 1 0 1.36H13.18v2.356a2.492 2.492 0 1 1-1.36 0v-2.357H1.625a.68.68 0 0 1 0-1.359h1.133V5.836H2.53A1.586 1.586 0 0 1 .945 4.25V2.437A1.586 1.586 0 0 1 2.531.853H22.47a1.586 1.586 0 0 1 1.586 1.586V4.25a1.586 1.586 0 0 1-1.586 1.586h-.227ZM12.5 22.148a1.133 1.133 0 1 0 0 2.266 1.133 1.133 0 0 0 0-2.266ZM2.531 4.477H22.47a.227.227 0 0 0 .226-.227V2.437a.227.227 0 0 0-.226-.226H2.53a.227.227 0 0 0-.226.227V4.25a.227.227 0 0 0 .226.227Zm18.352 1.359H4.117v11.328h16.766V5.836Z" fill="#000"/></svg>