<svg width="24" height="25" fill="none" xmlns="http://www.w3.org/2000/svg"><path d="M7.25 12.46v-1.812a.68.68 0 0 1 1.36 0v1.813a.68.68 0 1 1-1.36 0Zm4.305.68a.68.68 0 0 0 .68-.68V9.743a.68.68 0 1 0-1.36 0v2.719a.68.68 0 0 0 .68.68Zm3.625 0a.68.68 0 0 0 .68-.68V8.837a.68.68 0 1 0-1.36 0v3.625a.68.68 0 0 0 .68.68Zm6.117-8.156v11.329h1.133a.68.68 0 1 1 0 1.359H12.234v2.356a2.492 2.492 0 1 1-1.359 0v-2.356H.68a.68.68 0 1 1 0-1.36h1.132V4.985h-.226A1.586 1.586 0 0 1 0 3.398V1.586A1.586 1.586 0 0 1 1.586 0h19.937a1.586 1.586 0 0 1 1.586 1.586v1.812a1.586 1.586 0 0 1-1.586 1.586h-.226Zm-9.742 16.313a1.133 1.133 0 1 0 0 2.265 1.133 1.133 0 0 0 0-2.265ZM1.585 3.625h19.938a.226.226 0 0 0 .227-.227V1.586a.227.227 0 0 0-.227-.227H1.586a.227.227 0 0 0-.227.227v1.812a.227.227 0 0 0 .227.227Zm18.352 1.36H3.172v11.328h16.765V4.983Z" fill="#FFC226"/></svg>