<svg width="114" height="32" fill="none" xmlns="http://www.w3.org/2000/svg"><g clip-path="url(#a)"><path d="M0 0h114v32H0V0Z" fill="#fff"/><path d="m22.612 23-.884-2.89h-4.42L16.424 23h-2.77l4.283-12.189h3.145L25.383 23h-2.77Zm-2.38-7.871c-.056-.193-.13-.436-.22-.731-.091-.295-.182-.595-.273-.901-.09-.306-.164-.572-.22-.799-.057.227-.137.51-.239.85-.09.329-.181.646-.272.952-.079.295-.141.504-.187.629l-.867 2.822h3.162l-.884-2.822Zm10.565-4.267c1.564 0 2.703.34 3.417 1.02.725.669 1.088 1.592 1.088 2.771a4.91 4.91 0 0 1-.238 1.53 3.374 3.374 0 0 1-.8 1.292c-.362.374-.844.669-1.444.884-.601.215-1.343.323-2.227.323h-1.105V23H26.92V10.862h3.876Zm-.136 2.108h-1.173v3.604h.85c.487 0 .906-.062 1.258-.187.351-.125.623-.323.816-.595.192-.272.289-.623.289-1.054 0-.6-.165-1.043-.493-1.326-.329-.295-.845-.442-1.547-.442ZM37.595 23V10.862H47.2V23h-2.567v-9.996h-4.47V23h-2.568Zm12.667-12.138h2.312v5.865c0 .283-.005.6-.017.952-.01.351-.022.697-.034 1.037a77.78 77.78 0 0 1-.034.867 7.56 7.56 0 0 1-.034.493h.051l5.61-9.214h3.077V23h-2.295v-5.831c0-.306.006-.64.017-1.003l.034-1.071c.023-.34.04-.635.051-.884.023-.26.04-.43.051-.51h-.068L53.356 23h-3.094V10.862ZM74.152 23h-2.924l-4.403-6.154V23h-2.568V10.862h2.567v5.882l4.353-5.882h2.736l-4.42 5.831L74.153 23Zm12.211-6.086c0 .94-.119 1.796-.357 2.567a5.33 5.33 0 0 1-1.054 1.972c-.464.555-1.065.98-1.802 1.275-.725.295-1.58.442-2.567.442-.986 0-1.847-.147-2.584-.442a4.862 4.862 0 0 1-1.802-1.275c-.464-.555-.816-1.218-1.054-1.989-.226-.77-.34-1.626-.34-2.567 0-1.258.204-2.352.612-3.281a4.713 4.713 0 0 1 1.904-2.159c.862-.521 1.955-.782 3.281-.782 1.315 0 2.397.26 3.247.782.85.51 1.48 1.235 1.887 2.176.42.93.63 2.023.63 3.281Zm-8.857 0c0 .85.108 1.581.323 2.193.216.612.55 1.082 1.003 1.411.454.329 1.037.493 1.751.493.737 0 1.326-.164 1.768-.493.454-.329.782-.799.986-1.411.216-.612.323-1.343.323-2.193 0-1.28-.238-2.284-.714-3.009-.476-.725-1.258-1.088-2.346-1.088-.725 0-1.314.164-1.768.493-.453.329-.787.799-1.003 1.411-.215.612-.323 1.343-.323 2.193ZM98.823 23h-2.567v-5.236h-4.811V23h-2.567V10.862h2.567v4.76h4.81v-4.76h2.568V23Z" fill="#4D5EA5"/></g><defs><clipPath id="a"><path fill="#fff" d="M0 0h114v32H0z"/></clipPath></defs></svg>