<svg width="49" height="61" fill="none" xmlns="http://www.w3.org/2000/svg"><path d="M43.458 6.125v48.75h-16.25v-9.48h-5.416v9.48H5.542V6.125h37.916ZM32.625 16.958h5.417v-5.416h-5.417v5.416Zm-10.833 0h5.416v-5.416h-5.416v5.416Zm-10.834 0h5.417v-5.416h-5.417v5.416Zm21.667 10.834h5.417v-5.417h-5.417v5.417Zm-10.833 0h5.416v-5.417h-5.416v5.417Zm-10.834 0h5.417v-5.417h-5.417v5.417Zm21.667 10.833h5.417v-5.417h-5.417v5.417Zm-10.833 0h5.416v-5.417h-5.416v5.417Zm-10.834 0h5.417v-5.417h-5.417v5.417Zm21.667 10.833h5.417v-5.416h-5.417v5.416Zm-21.667 0h5.417v-5.416h-5.417v5.416ZM48.875.708H.125v59.584h48.75V.708Z" fill="#5E79EC"/></svg>